<svg xmlns="http://www.w3.org/2000/svg" width="980" height="434" viewBox="0 0 980 434">
<rect width="100%" height="100%" fill="#fbfaf7"/>
<style>text{font-family:-apple-system,BlinkMacSystemFont,"Segoe UI","Noto Sans CJK SC","PingFang SC",Arial,sans-serif}.title{font-size:26px;font-weight:700;fill:#111827}.sub{font-size:15px;fill:#6b7280}.label{font-size:15px;fill:#111827}.value{font-size:15px;font-weight:650;fill:#111827}.axis{stroke:#e5e7eb;stroke-width:1}.note{font-size:13px;fill:#6b7280}</style>
<text class="title" x="28" y="38">NED Overview</text>
<text class="sub" x="28" y="64">Lower is better; this avoids over-penalizing one-character punctuation or spacing differences</text>
<line class="axis" x1="245" y1="74" x2="790" y2="74"/>
<text class="label" x="28" y="114">Avg NED</text>
<rect x="245" y="92" width="122.9" height="32" rx="7" fill="#2563eb" opacity="0.88"/>
<text class="value" x="379.9" y="114">0.0361</text>
<text class="note" x="820" y="114">overall</text>
<text class="label" x="28" y="162">WS Avg NED</text>
<rect x="245" y="140" width="116.6" height="32" rx="7" fill="#16a34a" opacity="0.88"/>
<text class="value" x="373.6" y="162">0.0342</text>
<text class="note" x="820" y="162">ignore spaces</text>
<text class="label" x="28" y="210">NFKC+WS Avg NED</text>
<rect x="245" y="188" width="115.7" height="32" rx="7" fill="#f97316" opacity="0.88"/>
<text class="value" x="372.7" y="210">0.0340</text>
<text class="note" x="820" y="210">normalize + spaces</text>
<text class="label" x="28" y="258">Yi-only Avg NED</text>
<rect x="245" y="236" width="130.5" height="32" rx="7" fill="#7c3aed" opacity="0.88"/>
<text class="value" x="387.5" y="258">0.0383</text>
<text class="note" x="820" y="258">Yi chars</text>
<text class="label" x="28" y="306">Han-only Avg NED</text>
<rect x="245" y="284" width="76.5" height="32" rx="7" fill="#dc2626" opacity="0.88"/>
<text class="value" x="333.5" y="306">0.0224</text>
<text class="note" x="820" y="306">Han chars</text>
<text class="label" x="28" y="354">Digit-only Avg NED</text>
<rect x="245" y="332" width="476.6" height="32" rx="7" fill="#0891b2" opacity="0.88"/>
<text class="value" x="733.6" y="354">0.1399</text>
<text class="note" x="820" y="354">digits</text>
</svg>