<svg xmlns="http://www.w3.org/2000/svg" width="980" height="306" viewBox="0 0 980 306" role="img">
<rect width="100%" height="100%" fill="#fbfaf7"/>
<style>text{font-family:-apple-system,BlinkMacSystemFont,"Segoe UI","Noto Sans CJK SC","PingFang SC",Arial,sans-serif}.title{font-size:25px;font-weight:700;fill:#111827}.sub{font-size:14px;fill:#6b7280}.label{font-size:14px;fill:#111827}.value{font-size:14px;font-weight:650;fill:#111827}.note{font-size:12px;fill:#6b7280}</style>
<text class="title" x="28" y="38">Evaluation Snapshot</text>
<text class="sub" x="28" y="63">Baseline vs LoRA on the final 758-sample NuosuBburma OCR evaluation set.</text>
<text class="label" x="28" y="118">Base Avg NED</text>
<rect x="255" y="98" width="545.0" height="26" rx="6" fill="#176b87" opacity="0.86"/>
<text class="value" x="810.0" y="117">0.726733</text>
<text class="note" x="845" y="117">unfine-tuned</text>
<text class="label" x="28" y="160">LoRA Avg NED</text>
<rect x="255" y="140" width="52.8" height="26" rx="6" fill="#8b5cf6" opacity="0.86"/>
<text class="value" x="317.8" y="159">0.070342</text>
<text class="note" x="845" y="159">fine-tuned</text>
<text class="label" x="28" y="202">LoRA line</text>
<rect x="255" y="182" width="19.1" height="26" rx="6" fill="#0f766e" opacity="0.86"/>
<text class="value" x="284.1" y="201">0.025444</text>
<text class="note" x="845" y="201">470 rows</text>
<text class="label" x="28" y="244">LoRA region</text>
<rect x="255" y="224" width="61.7" height="26" rx="6" fill="#c2410c" opacity="0.86"/>
<text class="value" x="326.7" y="243">0.082315</text>
<text class="note" x="845" y="243">119 rows</text>
<text class="label" x="28" y="286">LoRA page</text>
<rect x="255" y="266" width="140.1" height="26" rx="6" fill="#7c3aed" opacity="0.86"/>
<text class="value" x="405.1" y="285">0.186774</text>
<text class="note" x="845" y="285">169 rows</text>
</svg>
