<svg xmlns="http://www.w3.org/2000/svg" width="1120" height="640" viewBox="0 0 1120 640" role="img" aria-labelledby="title desc">
  <title id="title">NuosuBburma OCR training branch strategy</title>
  <desc id="desc">A vertical training branch diagram showing staged LoRA data decisions and the final evaluation status.</desc>
  <defs>
    <marker id="arrow" viewBox="0 0 10 10" refX="9" refY="5" markerWidth="8" markerHeight="8" orient="auto-start-reverse">
      <path d="M 0 0 L 10 5 L 0 10 z" fill="#52606d"/>
    </marker>
    <style>
      text{font-family:-apple-system,BlinkMacSystemFont,"Segoe UI","Noto Sans CJK SC","PingFang SC","Microsoft YaHei",Arial,sans-serif}
      .bg{fill:#fbfaf7}.title{font-size:28px;font-weight:780;fill:#172026}.sub{font-size:15px;fill:#64707d}
      .main{fill:#f7fffc;stroke:#12a37f;stroke-width:2;rx:12}.final{fill:#ecfdf5;stroke:#0f8d6d;stroke-width:2.4;rx:12}
      .side{fill:#fff;stroke:#d9e1de;stroke-width:1.4;rx:12}.drop{fill:#fff7f5;stroke:#e0a09a;stroke-width:1.5;rx:12}.keep{fill:#f8fbff;stroke:#9ac0e1;stroke-width:1.5;rx:12}
      .stage{font-size:13px;font-weight:800;fill:#0b5c4a}.head{font-size:18px;font-weight:780;fill:#172026}.body{font-size:13px;fill:#536170}.warn{font-size:13px;font-weight:780;fill:#95413b}
      .line{stroke:#52606d;stroke-width:2.3;fill:none;marker-end:url(#arrow)}.branch{stroke:#a4b0ba;stroke-width:1.8;fill:none;stroke-dasharray:5 5;marker-end:url(#arrow)}
      .dot{fill:#12a37f;stroke:#fbfaf7;stroke-width:5}
    </style>
  </defs>
  <rect class="bg" width="1120" height="640"/>
  <text class="title" x="40" y="48">三阶段训练路线：先建任务，再控风险，最后同口径评估</text>
  <text class="sub" x="40" y="74">训练分支只说明模型选择逻辑；公开结果统一回到最终 758 条评估集。</text>

  <circle class="dot" cx="92" cy="138" r="10"/>
  <rect class="main" x="130" y="104" width="430" height="96"/>
  <text class="stage" x="156" y="132">第一阶段</text>
  <text class="head" x="156" y="160">真实单书可行性验证</text>
  <text class="body" x="156" y="184">从真实裁切行开始，跑通标注、LoRA、评估闭环。</text>

  <path class="line" d="M 92 152 V 252"/>
  <circle class="dot" cx="92" cy="268" r="10"/>
  <rect class="main" x="130" y="234" width="430" height="104"/>
  <text class="stage" x="156" y="262">第二阶段</text>
  <text class="head" x="156" y="290">真实锚点 + 受控合成覆盖</text>
  <text class="body" x="156" y="314">补低频字、形近字、旧印刷退化和 region，同时监控输出漂移。</text>

  <path class="line" d="M 92 282 V 382"/>
  <circle class="dot" cx="92" cy="398" r="10"/>
  <rect class="main" x="130" y="364" width="430" height="104"/>
  <text class="stage" x="156" y="392">第三阶段</text>
  <text class="head" x="156" y="420">固定诊断集做分支选择</text>
  <text class="body" x="156" y="444">只读取输出，观察漏行、公式化片段、ASCII 漂移和异常长输出。</text>

  <path class="line" d="M 92 412 V 512"/>
  <circle class="dot" cx="92" cy="528" r="10"/>
  <rect class="final" x="130" y="494" width="430" height="104"/>
  <text class="stage" x="156" y="522">最终评估</text>
  <text class="head" x="156" y="550">758 条真实来源样本</text>
  <text class="body" x="156" y="574">最终结果：Base Avg NED 0.7267；LoRA Avg NED 0.0701。</text>

  <path class="branch" d="M 560 286 C 620 286 630 140 690 140"/>
  <rect class="drop" x="690" y="102" width="360" height="86"/>
  <text class="warn" x="714" y="130">放弃分支</text>
  <text class="head" x="714" y="157">无约束合成放大</text>
  <text class="body" x="714" y="179">能补覆盖，但容易带来 Latin、符号和长尾输出漂移。</text>

  <path class="branch" d="M 560 416 C 620 416 630 278 690 278"/>
  <rect class="keep" x="690" y="238" width="360" height="96"/>
  <text class="stage" x="714" y="266">保留对照</text>
  <text class="head" x="714" y="293">稳定分支与布局分支</text>
  <text class="body" x="714" y="317">用于解释训练数据策略，不作为最终公开评估分数。</text>

  <path class="branch" d="M 560 416 C 620 416 630 410 690 410"/>
  <rect class="drop" x="690" y="368" width="360" height="98"/>
  <text class="warn" x="714" y="397">剪掉分支</text>
  <text class="head" x="714" y="424">脚注 / Latin 通道过宽</text>
  <text class="body" x="714" y="448">局部样本会变好，但公式化片段、ASCII 或长输出风险回升。</text>

  <path class="branch" d="M 560 546 C 620 546 630 536 690 536"/>
  <rect class="side" x="690" y="500" width="360" height="92"/>
  <text class="stage" x="714" y="528">公开回填规则</text>
  <text class="head" x="714" y="555">同一评估集，同一脚本</text>
  <text class="body" x="714" y="579">LoRA 微调后结果完成后，只回填最终 758 条同口径结果。</text>
</svg>
